<svg version="1.1" viewBox="0.0 0.0 422.9160104986877 386.01837270341207" fill="none" stroke="none" stroke-linecap="square" stroke-miterlimit="10" xmlns:xlink="http://www.w3.org/1999/xlink" xmlns="http://www.w3.org/2000/svg"><clipPath id="p.0"><path d="m0 0l422.91602 0l0 386.01837l-422.91602 0l0 -386.01837z" clip-rule="nonzero"/></clipPath><g clip-path="url(#p.0)"><path fill="#000000" fill-opacity="0.0" d="m0 0l422.91602 0l0 386.01837l-422.91602 0z" fill-rule="evenodd"/><path fill="#c82506" d="m103.62336 118.83727l0 0c0 -62.134212 50.369728 -112.50394 112.503944 -112.50394l0 0c29.83789 0 58.45372 11.853058 79.55229 32.95164c21.098572 21.098583 32.95163 49.7144 32.95163 79.5523l0 0c0 62.13421 -50.36972 112.50393 -112.50392 112.50393l0 0c-62.134216 0 -112.503944 -50.36972 -112.503944 -112.50393z" fill-rule="evenodd"/><path stroke="#ffffff" stroke-width="1.3333333333333333" stroke-miterlimit="400.0" stroke-linecap="butt" d="m103.62336 118.83727l0 0c0 -62.134212 50.369728 -112.50394 112.503944 -112.50394l0 0c29.83789 0 58.45372 11.853058 79.55229 32.95164c21.098572 21.098583 32.95163 49.7144 32.95163 79.5523l0 0c0 62.13421 -50.36972 112.50393 -112.50392 112.50393l0 0c-62.134216 0 -112.503944 -50.36972 -112.503944 -112.50393z" fill-rule="evenodd"/><path fill="#c82506" d="m6.1233597 261.7405l0 0c0 -62.134216 50.369728 -112.50394 112.50394 -112.50394l0 0c29.837898 0 58.453712 11.853058 79.5523 32.95163c21.098572 21.098587 32.951645 49.7144 32.951645 79.55231l0 0c0 62.134216 -50.369736 112.50394 -112.503944 112.50394l0 0c-62.13421 0 -112.50394 -50.36972 -112.50394 -112.50394z" fill-rule="evenodd"/><path stroke="#ffffff" stroke-width="1.3333333333333333" stroke-miterlimit="400.0" stroke-linecap="butt" d="m6.1233597 261.7405l0 0c0 -62.134216 50.369728 -112.50394 112.50394 -112.50394l0 0c29.837898 0 58.453712 11.853058 79.5523 32.95163c21.098572 21.098587 32.951645 49.7144 32.951645 79.55231l0 0c0 62.134216 -50.369736 112.50394 -112.503944 112.50394l0 0c-62.13421 0 -112.50394 -50.36972 -112.50394 -112.50394z" fill-rule="evenodd"/><path fill="#c82506" d="m189.91365 261.7405l0 0c0 -62.134216 50.369736 -112.50394 112.50395 -112.50394l0 0c29.83789 0 58.453705 11.853058 79.55228 32.95163c21.098602 21.098587 32.95166 49.7144 32.95166 79.55231l0 0c0 62.134216 -50.36975 112.50394 -112.50394 112.50394l0 0c-62.134216 0 -112.50395 -50.36972 -112.50395 -112.50394z" fill-rule="evenodd"/><path stroke="#ffffff" stroke-width="1.3333333333333333" stroke-miterlimit="400.0" stroke-linecap="butt" d="m189.91365 261.7405l0 0c0 -62.134216 50.369736 -112.50394 112.50395 -112.50394l0 0c29.83789 0 58.453705 11.853058 79.55228 32.95163c21.098602 21.098587 32.95166 49.7144 32.95166 79.55231l0 0c0 62.134216 -50.36975 112.50394 -112.50394 112.50394l0 0c-62.134216 0 -112.50395 -50.36972 -112.50395 -112.50394z" fill-rule="evenodd"/><path fill="#000000" fill-opacity="0.0" d="m39.582676 219.87401l166.29922 0l0 83.71654l-166.29922 0z" fill-rule="evenodd"/><path fill="#ffffff" d="m60.75455 236.98479q0 3.15625 -1.0 5.4375q-1.0 2.28125 -2.8125 3.5625l3.890625 3.0625l-1.96875 1.8125l-4.59375 -3.65625q-1.078125 0.265625 -2.265625 0.265625q-2.578125 0 -4.578125 -1.265625q-1.984375 -1.265625 -3.09375 -3.609375q-1.09375 -2.34375 -1.125 -5.421875l0 -1.578125q0 -3.140625 1.09375 -5.546875q1.09375 -2.40625 3.09375 -3.6875q2.0 -1.28125 4.578125 -1.28125q2.625 0 4.625 1.28125q2.0 1.265625 3.078125 3.65625q1.078125 2.375 1.078125 5.578125l0 1.390625zm-2.875 -1.40625q0 -3.859375 -1.53125 -5.9375q-1.53125 -2.09375 -4.375 -2.09375q-2.71875 0 -4.28125 2.078125q-1.5625 2.0625 -1.609375 5.75l0 1.609375q0 3.734375 1.5625 5.890625q1.578125 2.15625 4.359375 2.15625q2.78125 0 4.296875 -2.03125q1.53125 -2.03125 1.578125 -5.8125l0 -1.609375zm16.87305 9.984375q-1.609375 1.90625 -4.75 1.90625q-2.578125 0 -3.9375 -1.5q-1.359375 -1.5 -1.375 -4.453125l0 -10.546875l2.78125 0l0 10.46875q0 3.6875 2.984375 3.6875q3.171875 0 4.21875 -2.375l0 -11.78125l2.78125 0l0 16.203125l-2.640625 0l-0.0625 -1.609375zm6.1654816 -6.640625q0 -2.375 0.9375 -4.28125q0.9375 -1.90625 2.609375 -2.9375q1.671875 -1.03125 3.8125 -1.03125q3.296875 0 5.34375 2.296875q2.046875 2.28125 2.046875 6.09375l0 0.1875q0 2.375 -0.90625 4.25q-0.90625 1.875 -2.59375 2.921875q-1.6875 1.046875 -3.875 1.046875q-3.28125 0 -5.328125 -2.28125q-2.046875 -2.296875 -2.046875 -6.0625l0 -0.203125zm2.78125 0.328125q0 2.703125 1.25 4.34375q1.25 1.625 3.34375 1.625q2.125 0 3.359375 -1.65625q1.25 -1.65625 1.25 -4.640625q0 -2.65625 -1.265625 -4.3125q-1.265625 -1.65625 -3.359375 -1.65625q-2.0625 0 -3.328125 1.640625q-1.25 1.625 -1.25 4.65625zm18.452393 7.921875l-2.78125 0l0 -16.203125l2.78125 0l0 16.203125zm-3.0 -20.5q0 -0.671875 0.40625 -1.125q0.421875 -0.46875 1.21875 -0.46875q0.8125 0 1.234375 0.46875q0.421875 0.453125 0.421875 1.140625q0 0.671875 -0.421875 1.125q-0.421875 0.4375 -1.234375 0.4375q-0.796875 0 -1.21875 -0.4375q-0.40625 -0.453125 -0.40625 -1.140625zm7.4864044 19.046875q0 -0.71875 0.421875 -1.1875q0.4375 -0.484375 1.28125 -0.484375q0.859375 0 1.296875 0.484375q0.4375 0.46875 0.4375 1.1875q0 0.6875 -0.4375 1.15625q-0.4375 0.46875 -1.296875 0.46875q-0.84375 0 -1.28125 -0.46875q-0.421875 -0.46875 -0.421875 -1.15625zm0 -13.0q0 -0.71875 0.421875 -1.1875q0.4375 -0.484375 1.28125 -0.484375q0.859375 0 1.296875 0.484375q0.4375 0.46875 0.4375 1.1875q0 0.6875 -0.4375 1.15625q-0.4375 0.46875 -1.296875 0.46875q-0.84375 0 -1.28125 -0.46875q-0.421875 -0.46875 -0.421875 -1.15625zm31.420021 7.53125q-0.40625 3.46875 -2.5625 5.34375q-2.140625 1.875 -5.703125 1.875q-3.8593674 0 -6.1874924 -2.765625q-2.328125 -2.765625 -2.328125 -7.40625l0 -2.09375q0 -3.046875 1.078125 -5.34375q1.09375 -2.3125 3.078125 -3.546875q2.0 -1.234375 4.6093674 -1.234375q3.484375 0 5.578125 1.9375q2.09375 1.9375 2.4375 5.359375l-2.890625 0q-0.375 -2.59375 -1.625 -3.765625q-1.25 -1.171875 -3.5 -1.171875q-2.7499924 0 -4.3124924 2.046875q-1.5625 2.03125 -1.5625 5.78125l0 2.109375q0 3.5625 1.484375 5.65625q1.484375 2.09375 4.1406174 2.09375q2.390625 0 3.671875 -1.078125q1.28125 -1.09375 1.703125 -3.796875l2.890625 0zm3.6878815 -8.734375l-1.578125 -1.078125q1.390625 -1.953125 1.4375 -4.109375l0 -2.15625l2.734375 0l0 1.953125q-0.015625 1.5 -0.75 2.984375q-0.71875 1.484375 -1.84375 2.40625zm12.637894 15.953125q-3.28125 0 -5.359375 -2.15625q-2.0625 -2.171875 -2.0625 -5.796875l0 -0.5q0 -2.40625 0.921875 -4.296875q0.921875 -1.90625 2.578125 -2.96875q1.65625 -1.078125 3.578125 -1.078125q3.15625 0 4.90625 2.09375q1.765625 2.078125 1.765625 5.953125l0 1.140625l-10.984375 0q0.0625 2.40625 1.40625 3.890625q1.34375 1.46875 3.40625 1.46875q1.46875 0 2.484375 -0.59375q1.015625 -0.609375 1.78125 -1.59375l1.6875 1.3125q-2.03125 3.125 -6.109375 3.125zm-0.34375 -14.515625q-1.671875 0 -2.8125 1.21875q-1.140625 1.21875 -1.40625 3.421875l8.109375 0l0 -0.21875q-0.109375 -2.109375 -1.140625 -3.265625q-1.015625 -1.15625 -2.75 -1.15625zm19.303726 9.921875q0 -1.125 -0.859375 -1.734375q-0.84375 -0.625 -2.953125 -1.078125q-2.09375 -0.453125 -3.328125 -1.078125q-1.234375 -0.625 -1.828125 -1.484375q-0.59375 -0.875 -0.59375 -2.078125q0 -1.984375 1.6875 -3.359375q1.6875 -1.390625 4.3125 -1.390625q2.75 0 4.453125 1.421875q1.71875 1.421875 1.71875 3.640625l-2.78125 0q0 -1.140625 -0.96875 -1.953125q-0.953125 -0.828125 -2.421875 -0.828125q-1.515625 0 -2.375 0.65625q-0.84375 0.65625 -0.84375 1.71875q0 1.0 0.78125 1.515625q0.796875 0.515625 2.875 0.984375q2.078125 0.453125 3.359375 1.09375q1.28125 0.640625 1.90625 1.546875q0.625 0.90625 0.625 2.21875q0 2.171875 -1.734375 3.484375q-1.734375 1.296875 -4.515625 1.296875q-1.9375 0 -3.4375 -0.6875q-1.5 -0.6875 -2.34375 -1.921875q-0.84375 -1.234375 -0.84375 -2.671875l2.765625 0q0.078125 1.390625 1.109375 2.21875q1.046875 0.8125 2.75 0.8125q1.578125 0 2.53125 -0.640625q0.953125 -0.640625 0.953125 -1.703125zm10.135254 -15.828125l0 3.921875l3.015625 0l0 2.140625l-3.015625 0l0 10.046875q0 0.984375 0.390625 1.46875q0.40625 0.484375 1.390625 0.484375q0.46875 0 1.3125 -0.1875l0 2.25q-1.09375 0.296875 -2.125 0.296875q-1.859375 0 -2.8125 -1.125q-0.9375 -1.125 -0.9375 -3.1875l0 -10.046875l-2.9375 0l0 -2.140625l2.9375 0l0 -3.921875l2.78125 0z" fill-rule="nonzero"/><path fill="#ffffff" d="m57.363926 283.2504q0 3.703125 -1.703125 5.96875q-1.6875 2.25 -4.578125 2.25q-2.9375 0 -4.640625 -1.875l0 7.8125l-2.765625 0l0 -22.4375l2.53125 0l0.140625 1.796875q1.6875 -2.09375 4.6875 -2.09375q2.921875 0 4.625 2.203125q1.703125 2.203125 1.703125 6.125l0 0.25zm-2.765625 -0.3125q0 -2.734375 -1.171875 -4.3125q-1.171875 -1.59375 -3.203125 -1.59375q-2.515625 0 -3.78125 2.21875l0 7.75q1.25 2.21875 3.8125 2.21875q1.984375 0 3.15625 -1.578125q1.1875 -1.59375 1.1875 -4.703125zm14.105488 -5.484375q-0.625 -0.09375 -1.359375 -0.09375q-2.71875 0 -3.7031288 2.3125l0 11.5l-2.765625 0l0 -16.203125l2.703125 0l0.03125 1.875q1.3750038 -2.171875 3.8750038 -2.171875q0.796875 0 1.21875 0.21875l0 2.5625zm9.264053 14.015625q-3.28125 0 -5.359375 -2.15625q-2.0625 -2.171875 -2.0625 -5.796875l0 -0.5q0 -2.40625 0.921875 -4.296875q0.921875 -1.90625 2.578125 -2.96875q1.65625 -1.078125 3.578125 -1.078125q3.15625 0 4.90625 2.09375q1.765625 2.078125 1.765625 5.953125l0 1.140625l-10.984375 0q0.0625 2.40625 1.40625 3.890625q1.34375 1.46875 3.40625 1.46875q1.46875 0 2.484375 -0.59375q1.015625 -0.609375 1.78125 -1.59375l1.6875 1.3125q-2.03125 3.125 -6.109375 3.125zm-0.34375 -14.515625q-1.671875 0 -2.8125 1.21875q-1.140625 1.21875 -1.40625 3.421875l8.109375 0l0 -0.21875q-0.109375 -2.109375 -1.140625 -3.265625q-1.015625 -1.15625 -2.75 -1.15625zm1.265625 -8.78125l3.34375 0l-4.0 4.40625l-2.234375 0l2.890625 -4.40625zm15.100601 21.046875q1.484375 0 2.59375 -0.890625q1.109375 -0.90625 1.21875 -2.265625l2.625 0q-0.078125 1.390625 -0.96875 2.65625q-0.875 1.25 -2.359375 2.0q-1.46875 0.75 -3.109375 0.75q-3.3125 0 -5.265625 -2.203125q-1.953125 -2.203125 -1.953125 -6.046875l0 -0.453125q0 -2.375 0.859375 -4.203125q0.875 -1.84375 2.5 -2.859375q1.625 -1.03125 3.84375 -1.03125q2.71875 0 4.515625 1.640625q1.8125 1.625 1.9375 4.234375l-2.625 0q-0.109375 -1.578125 -1.1875 -2.578125q-1.0625 -1.015625 -2.640625 -1.015625q-2.109375 0 -3.28125 1.515625q-1.15625 1.515625 -1.15625 4.390625l0 0.53125q0 2.796875 1.15625 4.3125q1.15625 1.515625 3.296875 1.515625zm12.562256 1.953125l-2.78125 0l0 -16.203125l2.78125 0l0 16.203125zm-3.0 -20.5q0 -0.671875 0.40625 -1.125q0.421875 -0.46875 1.21875 -0.46875q0.8125 0 1.234375 0.46875q0.421875 0.453125 0.421875 1.140625q0 0.671875 -0.421875 1.125q-0.421875 0.4375 -1.234375 0.4375q-0.796875 0 -1.21875 -0.4375q-0.40625 -0.453125 -0.40625 -1.140625zm16.861404 16.203125q0 -1.125 -0.859375 -1.734375q-0.84375 -0.625 -2.953125 -1.078125q-2.09375 -0.453125 -3.328125 -1.078125q-1.234375 -0.625 -1.828125 -1.484375q-0.59375 -0.875 -0.59375 -2.078125q0 -1.984375 1.6875 -3.359375q1.6875 -1.390625 4.3125 -1.390625q2.75 0 4.453125 1.421875q1.71875 1.421875 1.71875 3.640625l-2.78125 0q0 -1.140625 -0.96875 -1.953125q-0.953125 -0.828125 -2.421875 -0.828125q-1.515625 0 -2.375 0.65625q-0.84375 0.65625 -0.84375 1.71875q0 1.0 0.78125 1.515625q0.796875 0.515625 2.875 0.984375q2.078125 0.453125 3.359375 1.09375q1.28125 0.640625 1.90625 1.546875q0.625 0.90625 0.625 2.21875q0 2.171875 -1.734375 3.484375q-1.734375 1.296875 -4.515625 1.296875q-1.9375 0 -3.4375 -0.6875q-1.5 -0.6875 -2.34375 -1.921875q-0.84375 -1.234375 -0.84375 -2.671875l2.765625 0q0.078125 1.390625 1.109375 2.21875q1.046875 0.8125 2.75 0.8125q1.578125 0 2.53125 -0.640625q0.953125 -0.640625 0.953125 -1.703125z" fill-rule="nonzero"/><path fill="#000000" fill-opacity="0.0" d="m148.02095 76.97113l143.81102 0l0 83.71654l-143.81102 0z" fill-rule="evenodd"/><path fill="#ffffff" d="m169.19283 94.081894q0 3.15625 -1.0 5.4375q-1.0 2.28125 -2.8125 3.5625l3.890625 3.0625l-1.96875 1.8125l-4.59375 -3.65625q-1.078125 0.265625 -2.265625 0.265625q-2.578125 0 -4.578125 -1.265625q-1.984375 -1.265625 -3.09375 -3.609375q-1.09375 -2.34375 -1.125 -5.421875l0 -1.578125q0 -3.140625 1.09375 -5.546875q1.09375 -2.40625 3.09375 -3.6875q2.0 -1.28125 4.578125 -1.28125q2.625 0 4.625 1.28125q2.0 1.265625 3.078125 3.65625q1.078125 2.375 1.078125 5.578125l0 1.390625zm-2.875 -1.40625q0 -3.859375 -1.53125 -5.9375q-1.53125 -2.09375 -4.375 -2.09375q-2.71875 0 -4.28125 2.078125q-1.5625 2.0625 -1.609375 5.75l0 1.609375q0 3.734375 1.5625 5.890625q1.578125 2.15625 4.359375 2.15625q2.78125 0 4.296875 -2.03125q1.53125 -2.03125 1.578125 -5.8125l0 -1.609375zm16.873047 9.984375q-1.609375 1.90625 -4.75 1.90625q-2.578125 0 -3.9375 -1.5q-1.359375 -1.5 -1.375 -4.453125l0 -10.546875l2.78125 0l0 10.46875q0 3.6875 2.984375 3.6875q3.171875 0 4.21875 -2.375l0 -11.78125l2.78125 0l0 16.203125l-2.640625 0l-0.0625 -1.609375zm16.899857 1.609375q-0.234375 -0.484375 -0.390625 -1.703125q-1.921875 2.0 -4.609375 2.0q-2.390625 0 -3.9375 -1.34375q-1.53125 -1.359375 -1.53125 -3.4375q0 -2.53125 1.921875 -3.921875q1.9375 -1.40625 5.421875 -1.40625l2.6875 0l0 -1.28125q0 -1.453125 -0.875 -2.3125q-0.859375 -0.859375 -2.546875 -0.859375q-1.484375 0 -2.484375 0.75q-1.0 0.75 -1.0 1.8125l-2.796875 0q0 -1.21875 0.859375 -2.34375q0.875 -1.125 2.34375 -1.78125q1.46875 -0.671875 3.234375 -0.671875q2.8125 0 4.390625 1.40625q1.59375 1.390625 1.65625 3.859375l0 7.453125q0 2.21875 0.5625 3.546875l0 0.234375l-2.90625 0zm-4.59375 -2.109375q1.296875 0 2.46875 -0.671875q1.171875 -0.671875 1.6875 -1.75l0 -3.328125l-2.171875 0q-5.078125 0 -5.078125 2.984375q0 1.296875 0.859375 2.03125q0.875 0.734375 2.234375 0.734375zm13.8940735 -14.09375l0.09375 2.046875q1.84375 -2.34375 4.84375 -2.34375q5.140625 0 5.171875 5.796875l0 10.703125l-2.765625 0l0 -10.71875q-0.015625 -1.75 -0.796875 -2.578125q-0.78125 -0.84375 -2.453125 -0.84375q-1.34375 0 -2.359375 0.71875q-1.015625 0.71875 -1.59375 1.875l0 11.546875l-2.765625 0l0 -16.203125l2.625 0zm13.61795 7.96875q0 -3.71875 1.765625 -5.984375q1.765625 -2.28125 4.625 -2.28125q2.84375 0 4.5 1.953125l0 -8.453125l2.78125 0l0 23.0l-2.546875 0l-0.140625 -1.734375q-1.65625 2.03125 -4.625 2.03125q-2.8125 0 -4.59375 -2.296875q-1.765625 -2.3125 -1.765625 -6.015625l0 -0.21875zm2.765625 0.3125q0 2.75 1.140625 4.3125q1.140625 1.5625 3.140625 1.5625q2.640625 0 3.84375 -2.375l0 -7.4375q-1.234375 -2.28125 -3.8125 -2.28125q-2.03125 0 -3.171875 1.578125q-1.140625 1.5625 -1.140625 4.640625zm15.257797 6.46875q0 -0.71875 0.421875 -1.1875q0.4375 -0.484375 1.28125 -0.484375q0.859375 0 1.296875 0.484375q0.4375 0.46875 0.4375 1.1875q0 0.6875 -0.4375 1.15625q-0.4375 0.46875 -1.296875 0.46875q-0.84375 0 -1.28125 -0.46875q-0.421875 -0.46875 -0.421875 -1.15625zm0 -13.0q0 -0.71875 0.421875 -1.1875q0.4375 -0.484375 1.28125 -0.484375q0.859375 0 1.296875 0.484375q0.4375 0.46875 0.4375 1.1875q0 0.6875 -0.4375 1.15625q-0.4375 0.46875 -1.296875 0.46875q-0.84375 0 -1.28125 -0.46875q-0.421875 -0.46875 -0.421875 -1.15625z" fill-rule="nonzero"/><path fill="#ffffff" d="m168.58345 141.34752q-0.40625 3.46875 -2.5625 5.34375q-2.140625 1.875 -5.703125 1.875q-3.859375 0 -6.1875 -2.765625q-2.328125 -2.765625 -2.328125 -7.40625l0 -2.09375q0 -3.046875 1.078125 -5.34375q1.09375 -2.3125 3.078125 -3.546875q2.0 -1.234375 4.609375 -1.234375q3.484375 0 5.578125 1.9375q2.09375 1.9375 2.4375 5.359375l-2.890625 0q-0.375 -2.59375 -1.625 -3.765625q-1.25 -1.171875 -3.5 -1.171875q-2.75 0 -4.3125 2.046875q-1.5625 2.03125 -1.5625 5.78125l0 2.109375q0 3.5625 1.484375 5.65625q1.484375 2.09375 4.140625 2.09375q2.390625 0 3.671875 -1.078125q1.28125 -1.09375 1.703125 -3.796875l2.890625 0zm3.6878815 -8.734375l-1.578125 -1.078125q1.390625 -1.953125 1.4375 -4.109375l0 -2.15625l2.734375 0l0 1.953125q-0.015625 1.5 -0.75 2.984375q-0.71875 1.484375 -1.84375 2.40625zm12.637894 15.953125q-3.28125 0 -5.359375 -2.15625q-2.0625 -2.171875 -2.0625 -5.796875l0 -0.5q0 -2.40625 0.921875 -4.296875q0.921875 -1.90625 2.578125 -2.96875q1.65625 -1.078125 3.578125 -1.078125q3.15625 0 4.90625 2.09375q1.765625 2.078125 1.765625 5.953125l0 1.140625l-10.984375 0q0.0625 2.40625 1.40625 3.890625q1.34375 1.46875 3.40625 1.46875q1.46875 0 2.484375 -0.59375q1.015625 -0.609375 1.78125 -1.59375l1.6875 1.3125q-2.03125 3.125 -6.109375 3.125zm-0.34375 -14.515625q-1.671875 0 -2.8125 1.21875q-1.140625 1.21875 -1.40625 3.421875l8.109375 0l0 -0.21875q-0.109375 -2.109375 -1.140625 -3.265625q-1.015625 -1.15625 -2.75 -1.15625zm19.303726 9.921875q0 -1.125 -0.859375 -1.734375q-0.84375 -0.625 -2.953125 -1.078125q-2.09375 -0.453125 -3.328125 -1.078125q-1.234375 -0.625 -1.828125 -1.484375q-0.59375 -0.875 -0.59375 -2.078125q0 -1.984375 1.6875 -3.359375q1.6875 -1.390625 4.3125 -1.390625q2.75 0 4.453125 1.421875q1.71875 1.421875 1.71875 3.640625l-2.78125 0q0 -1.140625 -0.96875 -1.953125q-0.953125 -0.828125 -2.421875 -0.828125q-1.515625 0 -2.375 0.65625q-0.84375 0.65625 -0.84375 1.71875q0 1.0 0.78125 1.515625q0.796875 0.515625 2.875 0.984375q2.078125 0.453125 3.359375 1.09375q1.28125 0.640625 1.90625 1.546875q0.625 0.90625 0.625 2.21875q0 2.171875 -1.734375 3.484375q-1.734375 1.296875 -4.515625 1.296875q-1.9375 0 -3.4375 -0.6875q-1.5 -0.6875 -2.34375 -1.921875q-0.84375 -1.234375 -0.84375 -2.671875l2.765625 0q0.078125 1.390625 1.109375 2.21875q1.046875 0.8125 2.75 0.8125q1.578125 0 2.53125 -0.640625q0.953125 -0.640625 0.953125 -1.703125zm10.135254 -15.828125l0 3.921875l3.015625 0l0 2.140625l-3.015625 0l0 10.046875q0 0.984375 0.390625 1.46875q0.40625 0.484375 1.390625 0.484375q0.46875 0 1.3125 -0.1875l0 2.25q-1.09375 0.296875 -2.125 0.296875q-1.859375 0 -2.8125 -1.125q-0.9375 -1.125 -0.9375 -3.1875l0 -10.046875l-2.9375 0l0 -2.140625l2.9375 0l0 -3.921875l2.78125 0zm13.165894 11.890625q0 -3.71875 1.765625 -5.984375q1.765625 -2.28125 4.625 -2.28125q2.84375 0 4.5 1.953125l0 -8.453125l2.78125 0l0 23.0l-2.546875 0l-0.140625 -1.734375q-1.65625 2.03125 -4.625 2.03125q-2.8125 0 -4.59375 -2.296875q-1.765625 -2.3125 -1.765625 -6.015625l0 -0.21875zm2.765625 0.3125q0 2.75 1.140625 4.3125q1.140625 1.5625 3.140625 1.5625q2.640625 0 3.84375 -2.375l0 -7.4375q-1.234375 -2.28125 -3.8125 -2.28125q-2.03125 0 -3.171875 1.578125q-1.140625 1.5625 -1.140625 4.640625zm25.195297 7.921875q-0.234375 -0.484375 -0.390625 -1.703125q-1.921875 2.0 -4.609375 2.0q-2.390625 0 -3.9375 -1.34375q-1.53125 -1.359375 -1.53125 -3.4375q0 -2.53125 1.921875 -3.921875q1.9375 -1.40625 5.421875 -1.40625l2.6875 0l0 -1.28125q0 -1.453125 -0.875 -2.3125q-0.859375 -0.859375 -2.546875 -0.859375q-1.484375 0 -2.484375 0.75q-1.0 0.75 -1.0 1.8125l-2.796875 0q0 -1.21875 0.859375 -2.34375q0.875 -1.125 2.34375 -1.78125q1.46875 -0.671875 3.234375 -0.671875q2.8125 0 4.390625 1.40625q1.5937653 1.390625 1.6562653 3.859375l0 7.453125q0 2.21875 0.5625 3.546875l0 0.234375l-2.9062653 0zm-4.59375 -2.109375q1.296875 0 2.46875 -0.671875q1.171875 -0.671875 1.6875 -1.75l0 -3.328125l-2.171875 0q-5.078125 0 -5.078125 2.984375q0 1.296875 0.859375 2.03125q0.875 0.734375 2.234375 0.734375zm15.034714 -18.015625l0 3.921875l3.015625 0l0 2.140625l-3.015625 0l0 10.046875q0 0.984375 0.390625 1.46875q0.40625 0.484375 1.390625 0.484375q0.46875 0 1.3125 -0.1875l0 2.25q-1.09375 0.296875 -2.125 0.296875q-1.859375 0 -2.8125 -1.125q-0.9375 -1.125 -0.9375 -3.1875l0 -10.046875l-2.9375 0l0 -2.140625l2.9375 0l0 -3.921875l2.78125 0zm12.967285 20.421875q-3.28125 0 -5.359375 -2.15625q-2.0625 -2.171875 -2.0625 -5.796875l0 -0.5q0 -2.40625 0.921875 -4.296875q0.921875 -1.90625 2.578125 -2.96875q1.65625 -1.078125 3.578125 -1.078125q3.15625 0 4.90625 2.09375q1.765625 2.078125 1.765625 5.953125l0 1.140625l-10.984375 0q0.0625 2.40625 1.40625 3.890625q1.34375 1.46875 3.40625 1.46875q1.46875 0 2.484375 -0.59375q1.015625 -0.609375 1.78125 -1.59375l1.6875 1.3125q-2.03125 3.125 -6.109375 3.125zm-0.34375 -14.515625q-1.671875 0 -2.8125 1.21875q-1.140625 1.21875 -1.40625 3.421875l8.109375 0l0 -0.21875q-0.109375 -2.109375 -1.140625 -3.265625q-1.015625 -1.15625 -2.75 -1.15625zm1.265625 -8.78125l3.34375 0l-4.0 4.40625l-2.234375 0l2.890625 -4.40625z" fill-rule="nonzero"/><path fill="#000000" fill-opacity="0.0" d="m225.50128 219.87401l162.55118 0l0 83.71654l-162.55118 0z" fill-rule="evenodd"/><path fill="#ffffff" d="m246.67316 236.98479q0 3.15625 -1.0 5.4375q-1.0 2.28125 -2.8125 3.5625l3.890625 3.0625l-1.96875 1.8125l-4.59375 -3.65625q-1.078125 0.265625 -2.265625 0.265625q-2.578125 0 -4.578125 -1.265625q-1.984375 -1.265625 -3.09375 -3.609375q-1.09375 -2.34375 -1.125 -5.421875l0 -1.578125q0 -3.140625 1.09375 -5.546875q1.09375 -2.40625 3.09375 -3.6875q2.0 -1.28125 4.578125 -1.28125q2.625 0 4.625 1.28125q2.0 1.265625 3.078125 3.65625q1.078125 2.375 1.078125 5.578125l0 1.390625zm-2.875 -1.40625q0 -3.859375 -1.53125 -5.9375q-1.53125 -2.09375 -4.375 -2.09375q-2.71875 0 -4.28125 2.078125q-1.5625 2.0625 -1.609375 5.75l0 1.609375q0 3.734375 1.5625 5.890625q1.578125 2.15625 4.359375 2.15625q2.78125 0 4.296875 -2.03125q1.53125 -2.03125 1.578125 -5.8125l0 -1.609375zm16.873047 9.984375q-1.609375 1.90625 -4.75 1.90625q-2.578125 0 -3.9375 -1.5q-1.359375 -1.5 -1.375 -4.453125l0 -10.546875l2.78125 0l0 10.46875q0 3.6875 2.984375 3.6875q3.171875 0 4.21875 -2.375l0 -11.78125l2.78125 0l0 16.203125l-2.640625 0l-0.0625 -1.609375zm9.915497 1.609375l-2.78125 0l0 -16.203125l2.78125 0l0 16.203125zm-3.0 -20.5q0 -0.671875 0.40625 -1.125q0.421875 -0.46875 1.21875 -0.46875q0.8125 0 1.234375 0.46875q0.421875 0.453125 0.421875 1.140625q0 0.671875 -0.421875 1.125q-0.421875 0.4375 -1.234375 0.4375q-0.796875 0 -1.21875 -0.4375q-0.40625 -0.453125 -0.40625 -1.140625zm7.486389 19.046875q0 -0.71875 0.421875 -1.1875q0.4375 -0.484375 1.28125 -0.484375q0.859375 0 1.296875 0.484375q0.4375 0.46875 0.4375 1.1875q0 0.6875 -0.4375 1.15625q-0.4375 0.46875 -1.296875 0.46875q-0.84375 0 -1.28125 -0.46875q-0.421875 -0.46875 -0.421875 -1.15625zm0 -13.0q0 -0.71875 0.421875 -1.1875q0.4375 -0.484375 1.28125 -0.484375q0.859375 0 1.296875 0.484375q0.4375 0.46875 0.4375 1.1875q0 0.6875 -0.4375 1.15625q-0.4375 0.46875 -1.296875 0.46875q-0.84375 0 -1.28125 -0.46875q-0.421875 -0.46875 -0.421875 -1.15625zm31.420044 7.53125q-0.40625 3.46875 -2.5625 5.34375q-2.140625 1.875 -5.703125 1.875q-3.859375 0 -6.1875 -2.765625q-2.328125 -2.765625 -2.328125 -7.40625l0 -2.09375q0 -3.046875 1.078125 -5.34375q1.09375 -2.3125 3.078125 -3.546875q2.0 -1.234375 4.609375 -1.234375q3.484375 0 5.578125 1.9375q2.09375 1.9375 2.4375 5.359375l-2.890625 0q-0.375 -2.59375 -1.625 -3.765625q-1.25 -1.171875 -3.5 -1.171875q-2.75 0 -4.3125 2.046875q-1.5625 2.03125 -1.5625 5.78125l0 2.109375q0 3.5625 1.484375 5.65625q1.484375 2.09375 4.140625 2.09375q2.390625 0 3.671875 -1.078125q1.28125 -1.09375 1.703125 -3.796875l2.890625 0zm3.6878662 -8.734375l-1.578125 -1.078125q1.390625 -1.953125 1.4375 -4.109375l0 -2.15625l2.734375 0l0 1.953125q-0.015625 1.5 -0.75 2.984375q-0.71875 1.484375 -1.84375 2.40625zm12.637909 15.953125q-3.28125 0 -5.359375 -2.15625q-2.0625 -2.171875 -2.0625 -5.796875l0 -0.5q0 -2.40625 0.921875 -4.296875q0.921875 -1.90625 2.578125 -2.96875q1.65625 -1.078125 3.578125 -1.078125q3.15625 0 4.90625 2.09375q1.765625 2.078125 1.765625 5.953125l0 1.140625l-10.984375 0q0.0625 2.40625 1.40625 3.890625q1.34375 1.46875 3.40625 1.46875q1.46875 0 2.484375 -0.59375q1.015625 -0.609375 1.78125 -1.59375l1.6875 1.3125q-2.03125 3.125 -6.109375 3.125zm-0.34375 -14.515625q-1.671875 0 -2.8125 1.21875q-1.140625 1.21875 -1.40625 3.421875l8.109375 0l0 -0.21875q-0.109375 -2.109375 -1.140625 -3.265625q-1.015625 -1.15625 -2.75 -1.15625zm19.30371 9.921875q0 -1.125 -0.859375 -1.734375q-0.84375 -0.625 -2.953125 -1.078125q-2.09375 -0.453125 -3.328125 -1.078125q-1.234375 -0.625 -1.828125 -1.484375q-0.59375 -0.875 -0.59375 -2.078125q0 -1.984375 1.6875 -3.359375q1.6875 -1.390625 4.3125 -1.390625q2.75 0 4.453125 1.421875q1.71875 1.421875 1.71875 3.640625l-2.78125 0q0 -1.140625 -0.96875 -1.953125q-0.953125 -0.828125 -2.421875 -0.828125q-1.515625 0 -2.375 0.65625q-0.84375 0.65625 -0.84375 1.71875q0 1.0 0.78125 1.515625q0.796875 0.515625 2.875 0.984375q2.078125 0.453125 3.359375 1.09375q1.28125 0.640625 1.90625 1.546875q0.625 0.90625 0.625 2.21875q0 2.171875 -1.734375 3.484375q-1.734375 1.296875 -4.515625 1.296875q-1.9375 0 -3.4375 -0.6875q-1.5 -0.6875 -2.34375 -1.921875q-0.84375 -1.234375 -0.84375 -2.671875l2.765625 0q0.078125 1.390625 1.109375 2.21875q1.046875 0.8125 2.75 0.8125q1.578125 0 2.53125 -0.640625q0.953125 -0.640625 0.953125 -1.703125zm10.135254 -15.828125l0 3.921875l3.015625 0l0 2.140625l-3.015625 0l0 10.046875q0 0.984375 0.390625 1.46875q0.40625 0.484375 1.390625 0.484375q0.46875 0 1.3125 -0.1875l0 2.25q-1.09375 0.296875 -2.125 0.296875q-1.859375 0 -2.8125 -1.125q-0.9375 -1.125 -0.9375 -3.1875l0 -10.046875l-2.9375 0l0 -2.140625l2.9375 0l0 -3.921875l2.78125 0z" fill-rule="nonzero"/><path fill="#ffffff" d="m232.61066 291.17227l-2.78125 0l0 -16.203125l2.78125 0l0 16.203125zm-3.0 -20.5q0 -0.671875 0.40625 -1.125q0.421875 -0.46875 1.21875 -0.46875q0.8125 0 1.234375 0.46875q0.421875 0.453125 0.421875 1.140625q0 0.671875 -0.421875 1.125q-0.421875 0.4375 -1.234375 0.4375q-0.796875 0 -1.21875 -0.4375q-0.40625 -0.453125 -0.40625 -1.140625zm10.048904 4.296875l0.09375 2.046875q1.84375 -2.34375 4.84375 -2.34375q5.140625 0 5.171875 5.796875l0 10.703125l-2.765625 0l0 -10.71875q-0.015625 -1.75 -0.796875 -2.578125q-0.78125 -0.84375 -2.453125 -0.84375q-1.34375 0 -2.359375 0.71875q-1.015625 0.71875 -1.59375 1.875l0 11.546875l-2.765625 0l0 -16.203125l2.625 0zm18.055466 -3.921875l0 3.921875l3.015625 0l0 2.140625l-3.015625 0l0 10.046875q0 0.984375 0.390625 1.46875q0.40625 0.484375 1.390625 0.484375q0.46875 0 1.3125 -0.1875l0 2.25q-1.09375 0.296875 -2.125 0.296875q-1.859375 0 -2.8125153 -1.125q-0.9375 -1.125 -0.9375 -3.1875l0 -10.046875l-2.9375 0l0 -2.140625l2.9375 0l0 -3.921875l2.7812653 0zm12.967285 20.421875q-3.28125 0 -5.359375 -2.15625q-2.0625 -2.171875 -2.0625 -5.796875l0 -0.5q0 -2.40625 0.921875 -4.296875q0.921875 -1.90625 2.578125 -2.96875q1.65625 -1.078125 3.578125 -1.078125q3.15625 0 4.90625 2.09375q1.765625 2.078125 1.765625 5.953125l0 1.140625l-10.984375 0q0.0625 2.40625 1.40625 3.890625q1.34375 1.46875 3.40625 1.46875q1.46875 0 2.484375 -0.59375q1.015625 -0.609375 1.78125 -1.59375l1.6875 1.3125q-2.03125 3.125 -6.109375 3.125zm-0.34375 -14.515625q-1.671875 0 -2.8125 1.21875q-1.140625 1.21875 -1.40625 3.421875l8.109375 0l0 -0.21875q-0.109375 -2.109375 -1.140625 -3.265625q-1.015625 -1.15625 -2.75 -1.15625zm1.265625 -8.78125l3.34375 0l-4.0 4.40625l-2.234375 0l2.890625 -4.40625zm16.428741 9.28125q-0.625 -0.09375 -1.359375 -0.09375q-2.71875 0 -3.703125 2.3125l0 11.5l-2.765625 0l0 -16.203125l2.703125 0l0.03125 1.875q1.375 -2.171875 3.875 -2.171875q0.796875 0 1.21875 0.21875l0 2.5625zm9.264038 14.015625q-3.28125 0 -5.359375 -2.15625q-2.0625 -2.171875 -2.0625 -5.796875l0 -0.5q0 -2.40625 0.921875 -4.296875q0.921875 -1.90625 2.578125 -2.96875q1.65625 -1.078125 3.578125 -1.078125q3.15625 0 4.90625 2.09375q1.765625 2.078125 1.765625 5.953125l0 1.140625l-10.984375 0q0.0625 2.40625 1.40625 3.890625q1.34375 1.46875 3.40625 1.46875q1.46875 0 2.484375 -0.59375q1.015625 -0.609375 1.78125 -1.59375l1.6875 1.3125q-2.03125 3.125 -6.109375 3.125zm-0.34375 -14.515625q-1.671875 0 -2.8125 1.21875q-1.140625 1.21875 -1.40625 3.421875l8.109375 0l0 -0.21875q-0.109375 -2.109375 -1.140625 -3.265625q-1.015625 -1.15625 -2.75 -1.15625zm19.303741 9.921875q0 -1.125 -0.859375 -1.734375q-0.84375 -0.625 -2.953125 -1.078125q-2.09375 -0.453125 -3.328125 -1.078125q-1.234375 -0.625 -1.828125 -1.484375q-0.59375 -0.875 -0.59375 -2.078125q0 -1.984375 1.6875 -3.359375q1.6875 -1.390625 4.3125 -1.390625q2.75 0 4.453125 1.421875q1.71875 1.421875 1.71875 3.640625l-2.78125 0q0 -1.140625 -0.96875 -1.953125q-0.953125 -0.828125 -2.421875 -0.828125q-1.515625 0 -2.375 0.65625q-0.84375 0.65625 -0.84375 1.71875q0 1.0 0.78125 1.515625q0.796875 0.515625 2.875 0.984375q2.078125 0.453125 3.359375 1.09375q1.28125 0.640625 1.90625 1.546875q0.625 0.90625 0.625 2.21875q0 2.171875 -1.734375 3.484375q-1.734375 1.296875 -4.515625 1.296875q-1.9375 0 -3.4375 -0.6875q-1.5 -0.6875 -2.34375 -1.921875q-0.84375 -1.234375 -0.84375 -2.671875l2.765625 0q0.078125 1.390625 1.109375 2.21875q1.046875 0.8125 2.75 0.8125q1.578125 0 2.53125 -0.640625q0.953125 -0.640625 0.953125 -1.703125zm15.807129 0q0 -1.125 -0.859375 -1.734375q-0.84375 -0.625 -2.953125 -1.078125q-2.09375 -0.453125 -3.328125 -1.078125q-1.234375 -0.625 -1.828125 -1.484375q-0.59375 -0.875 -0.59375 -2.078125q0 -1.984375 1.6875 -3.359375q1.6875 -1.390625 4.3125 -1.390625q2.75 0 4.453125 1.421875q1.71875 1.421875 1.71875 3.640625l-2.78125 0q0 -1.140625 -0.96875 -1.953125q-0.953125 -0.828125 -2.421875 -0.828125q-1.515625 0 -2.375 0.65625q-0.84375 0.65625 -0.84375 1.71875q0 1.0 0.78125 1.515625q0.796875 0.515625 2.875 0.984375q2.078125 0.453125 3.359375 1.09375q1.28125 0.640625 1.90625 1.546875q0.625 0.90625 0.625 2.21875q0 2.171875 -1.734375 3.484375q-1.734375 1.296875 -4.515625 1.296875q-1.9375 0 -3.4375 -0.6875q-1.5 -0.6875 -2.34375 -1.921875q-0.84375 -1.234375 -0.84375 -2.671875l2.765625 0q0.078125 1.390625 1.109375 2.21875q1.046875 0.8125 2.75 0.8125q1.578125 0 2.53125 -0.640625q0.953125 -0.640625 0.953125 -1.703125zm16.369629 4.296875q-0.234375 -0.484375 -0.390625 -1.703125q-1.921875 2.0 -4.609375 2.0q-2.390625 0 -3.9375 -1.34375q-1.53125 -1.359375 -1.53125 -3.4375q0 -2.53125 1.921875 -3.921875q1.9375 -1.40625 5.421875 -1.40625l2.6875 0l0 -1.28125q0 -1.453125 -0.875 -2.3125q-0.859375 -0.859375 -2.546875 -0.859375q-1.484375 0 -2.484375 0.75q-1.0 0.75 -1.0 1.8125l-2.796875 0q0 -1.21875 0.859375 -2.34375q0.875 -1.125 2.34375 -1.78125q1.46875 -0.671875 3.234375 -0.671875q2.8125 0 4.390625 1.40625q1.59375 1.390625 1.65625 3.859375l0 7.453125q0 2.21875 0.5625 3.546875l0 0.234375l-2.90625 0zm-4.59375 -2.109375q1.296875 0 2.46875 -0.671875q1.171875 -0.671875 1.6875 -1.75l0 -3.328125l-2.171875 0q-5.078125 0 -5.078125 2.984375q0 1.296875 0.859375 2.03125q0.875 0.734375 2.234375 0.734375zm13.8940735 -14.09375l0.09375 2.046875q1.84375 -2.34375 4.84375 -2.34375q5.140625 0 5.171875 5.796875l0 10.703125l-2.765625 0l0 -10.71875q-0.015625 -1.75 -0.796875 -2.578125q-0.78125 -0.84375 -2.453125 -0.84375q-1.34375 0 -2.359375 0.71875q-1.015625 0.71875 -1.59375 1.875l0 11.546875l-2.765625 0l0 -16.203125l2.625 0zm18.05545 -3.921875l0 3.921875l3.015625 0l0 2.140625l-3.015625 0l0 10.046875q0 0.984375 0.390625 1.46875q0.40625 0.484375 1.390625 0.484375q0.46875 0 1.3125 -0.1875l0 2.25q-1.09375 0.296875 -2.125 0.296875q-1.859375 0 -2.8125 -1.125q-0.9375 -1.125 -0.9375 -3.1875l0 -10.046875l-2.9375 0l0 -2.140625l2.9375 0l0 -3.921875l2.78125 0z" fill-rule="nonzero"/></g></svg>