<svg height="496pt" viewBox="0 -12 496.00539 496" width="496pt" xmlns="http://www.w3.org/2000/svg"><path d="m474.375 97.296875c-14.414062-15.375-34.503906-24.476563-55.503906-25.238281-13.75-42.734375-53.535156-72.05468775-98.871094-72.05468775-27.6875 0-54.082031 11.17578175-73.535156 30.66406275-17.761719-19.257813-42.984375-30.66406275-70.464844-30.66406275-50.433594 0-91.816406 39.10937475-95.625 88.58203175-10.816406-1.3125-21.449219-.144532-31.71875 3.609374-29.992188 10.976563-49.082031 38-48.6484375 68.855469.5507815 39.121094 32.8476565 70.953125 71.9921875 70.953125h16v96c0 13.230469 10.765625 24 24 24h40v54.136719l40-24v9.863281c0 13.230469 10.765625 24 24 24h69.335938l74.664062 56v-56h24c13.230469 0 24-10.769531 24-24v-160h5.535156c43.433594 0 79.585938-32.816406 82.296875-74.695312 1.445313-22.394532-6.167969-43.707032-21.457031-60.011719zm5.480469 58.976563c-2.167969 33.496093-31.296875 59.730468-66.320313 59.730468h-21.535156v176c0 4.414063-3.59375 8-8 8h-40v40l-53.335938-40h-74.664062c-4.410156 0-8-3.585937-8-8v-19.472656l34.214844-20.527344h61.785156c13.230469 0 24-10.769531 24-24v-160c0-13.234375-10.769531-24-24-24h-192c-13.234375 0-24 10.765625-24 24v32h16v-32c0-4.417968 3.589844-8 8-8h192c4.40625 0 8 3.582032 8 8v160c0 4.414063-3.59375 8-8 8h-66.21875l-69.78125 41.863282v-41.863282h-56c-4.410156 0-8-3.585937-8-8v-112h-32c-30.441406 0-55.5625-24.761718-55.992188-55.183594-.335937-23.953124 14.632813-44.992187 38.144532-53.59375 8.589844-3.136718 17.261718-3.855468 26.304687-2.40625.535157 5.878907 1.558594 11.695313 3.15625 17.359376l15.402344-4.34375c-2.007813-7.082032-3.015625-14.425782-3.015625-21.832032 0-44.113281 35.886719-80 80-80 33.207031 0 62.472656 19.984375 74.542969 50.902344l14.902343-5.816406c-2.453124-6.296875-5.550781-12.183594-9.125-17.671875 16.589844-17.40625 39.558594-27.414063 63.679688-27.414063 40.160156 0 75.167969 27.191406 85.144531 66.144532l1.613281 6.300781 7.800782-.375c.472656-.03125.953125-.070313 1.441406-.070313 17.878906 0 34.472656 7.183594 46.703125 20.238282 12.222656 13.039062 18.320313 30.105468 17.152344 48.03125zm0 0"/><path d="m120 176.003906h176v16h-176zm0 0"/><path d="m120 208.003906h176v16h-176zm0 0"/><path d="m120 240.003906h80v16h-80zm0 0"/><path d="m216 240.003906h80v16h-80zm0 0"/><path d="m120 272.003906h176v16h-176zm0 0"/><path d="m200 304.003906h16v16h-16zm0 0"/><path d="m232 304.003906h16v16h-16zm0 0"/><path d="m264 304.003906h16v16h-16zm0 0"/><path d="m168 304.003906h16v16h-16zm0 0"/><path d="m136 304.003906h16v16h-16zm0 0"/><path d="m344 240.003906h32v16h-32zm0 0"/><path d="m344 272.003906h32v16h-32zm0 0"/><path d="m344 304.003906h32v16h-32zm0 0"/><path d="m288 368.003906h88v16h-88zm0 0"/><path d="m256 368.003906h16v16h-16zm0 0"/><path d="m224 368.003906h16v16h-16zm0 0"/><path d="m344 336.003906h32v16h-32zm0 0"/><path d="m112 96.003906h16c0-26.472656 21.527344-48 48-48v-16c-35.289062 0-64 28.710938-64 64zm0 0"/></svg>