<?xml version="1.0" encoding="utf-8"?>
<!-- Generator: Adobe Illustrator 18.0.0, SVG Export Plug-In . SVG Version: 6.00 Build 0)  -->
<!DOCTYPE svg PUBLIC "-//W3C//DTD SVG 1.1//EN" "http://www.w3.org/Graphics/SVG/1.1/DTD/svg11.dtd">
<svg version="1.1" id="Layer_1" xmlns="http://www.w3.org/2000/svg" xmlns:xlink="http://www.w3.org/1999/xlink" x="0px" y="0px"
	 viewBox="0 0 64 64" enable-background="new 0 0 64 64" xml:space="preserve">
<symbol  id="apps_x5F_hub" viewBox="-32 -32 64 64">
	<polygon opacity="0" fill="#231F20" points="32,-32 -32,-32 -32,32 32,32 	"/>
	<g>
		<path fill="#0288D1" d="M-11.014,10.773v21.036h-15.804c-2.806,0-5.102-2.296-5.102-5.102V10.773H-11.014z"/>
		<path fill="#9CCC65" d="M-31.92-26.899c0-2.806,2.296-5.102,5.102-5.102h15.804v21.04H-31.92V-26.899z"/>
		<path fill="#FB8C00" d="M10.692-10.96V-32h16.045c2.806,0,5.102,2.296,5.102,5.102v15.938H10.692z"/>
		<path fill="#9CCC65" d="M26.736,31.809H10.722V10.773h21.116v15.934C31.838,29.513,29.542,31.809,26.736,31.809z"/>
		<polygon fill="#FFFFFF" points="10.744,-10.96 -10.985,-10.96 -10.985,10.769 10.744,10.769 		"/>
		<polygon fill="#FFEA00" points="10.692,-32 -11.012,-32 -11.012,-10.96 10.692,-10.96 		"/>
		<polygon fill="#26C6DA" points="10.744,10.773 -11.014,10.773 -11.014,31.809 10.744,31.809 		"/>
		<polygon fill="#00ACC1" points="-11.014,-10.96 -31.92,-10.96 -31.92,10.769 -11.014,10.769 		"/>
		<polygon fill="#FFEA00" points="31.838,-10.96 10.692,-10.96 10.725,10.776 31.838,10.809 		"/>
		<linearGradient id="SVGID_1_" gradientUnits="userSpaceOnUse" x1="-34.9805" y1="41.0667" x2="29.1028" y2="13.3384">
			<stop  offset="0" style="stop-color:#231F20"/>
			<stop  offset="1" style="stop-color:#000000;stop-opacity:0"/>
		</linearGradient>
		<polygon opacity="0.35" fill="url(#SVGID_1_)" points="10.796,31.769 31.791,10.773 10.744,10.773 		"/>
		<linearGradient id="SVGID_2_" gradientUnits="userSpaceOnUse" x1="-35.7288" y1="19.9649" x2="29.172" y2="-8.1171">
			<stop  offset="0" style="stop-color:#231F20"/>
			<stop  offset="1" style="stop-color:#000000;stop-opacity:0"/>
		</linearGradient>
		<polygon opacity="0.35" fill="url(#SVGID_2_)" points="10.744,10.809 31.74,-11.074 10.692,-11.074 		"/>
		<linearGradient id="SVGID_3_" gradientUnits="userSpaceOnUse" x1="-15.5674" y1="31.9847" x2="6.7913" y2="-30.3377">
			<stop  offset="0" style="stop-color:#231F20"/>
			<stop  offset="1" style="stop-color:#000000;stop-opacity:0"/>
		</linearGradient>
		<polygon opacity="0.35" fill="url(#SVGID_3_)" points="10.692,-31.758 -11.014,-10.96 10.692,-10.96 		"/>
		<g>
			<polygon opacity="0.15" fill="#FFFFFF" points="31.758,-10.96 31.758,-11.81 31.758,-11.81 31.758,-10.96 			"/>
			<path opacity="0.15" fill="#FFFFFF" d="M-26.898,30.959h15.804h21.736h0.022h15.992c2.806,0,5.102-2.296,5.102-5.102v0.85
				c0,2.806-2.296,5.102-5.102,5.102H10.664h-0.022h-21.736h-15.804c-2.806,0-5.102-2.296-5.102-5.102v-0.85
				C-32,28.663-29.704,30.959-26.898,30.959z"/>
		</g>
		<linearGradient id="SVGID_4_" gradientUnits="userSpaceOnUse" x1="-34.5043" y1="25.4203" x2="-17.05" y2="-23.2318">
			<stop  offset="0" style="stop-color:#231F20"/>
			<stop  offset="1" style="stop-color:#000000;stop-opacity:0"/>
		</linearGradient>
		<polygon opacity="0.35" fill="url(#SVGID_4_)" points="-11.035,-32 -10.985,-10.96 -31.92,-10.96 -11.84,-32 		"/>
		<path opacity="0.08" fill="#231F20" d="M26.657-31.15H10.612h-20.866h-0.839v0.052h-0.002v-0.052h-0.021h-0.806h-0.199h-14.778
			c-2.806,0-5.102,2.296-5.102,5.102v-0.85C-32-29.705-29.704-32-26.898-32h14.513h0.266h0.199h0.806h0.021h0.002h0.301h0.538
			h20.866h16.045c2.806,0,5.102,2.296,5.102,5.102v0.85C31.758-28.855,29.463-31.15,26.657-31.15z"/>
	</g>
</symbol>
<use xlink:href="#apps_x5F_hub"  width="64" height="64" x="-32" y="-32" transform="matrix(1 0 0 -1 32 32)" overflow="visible"/>
</svg>
