<?xml version="1.0" encoding="utf-8"?>
<!-- Generator: Adobe Illustrator 22.0.1, SVG Export Plug-In . SVG Version: 6.00 Build 0)  -->
<svg version="1.1" id="Calque_1" xmlns="http://www.w3.org/2000/svg" xmlns:xlink="http://www.w3.org/1999/xlink" x="0px" y="0px"
	 viewBox="0 0 330 155.8" style="enable-background:new 0 0 330 155.8;" xml:space="preserve">
<style type="text/css">
	.st0{fill-rule:evenodd;clip-rule:evenodd;fill:#FFFFFF;}
	.st1{fill-rule:evenodd;clip-rule:evenodd;fill:#E75112;}
</style>
<path class="st0" d="M97.5,51.4c-0.8,3.2-1.5,6.1-2.3,9c-1.8-0.4-3.5-0.8-5.2-1.1c-3.5-0.6-7.1-0.6-10.5,0.6
	C78.3,60.4,77,61,76,61.8c-2.4,2-2.2,5.6,0.6,7.2c1.5,0.9,3.2,1.4,4.8,2c3.9,1.4,7.9,2.4,11.7,4c6.2,2.6,9.8,7.3,9.7,14.2
	c0,7-3.6,11.7-9.7,14.7c-5.1,2.4-10.5,2.6-16,2.2c-3.8-0.3-7.4-1.1-10.8-2.7c-0.8-0.4-1.1-0.7-0.9-1.7c0.7-2.6,1.1-5.3,1.7-8.1
	c0.5,0.3,1,0.5,1.5,0.7C74.1,97,79.9,98,86,96.6c1.8-0.4,3.6-1.3,5-2.4c3.1-2.4,2.9-7-0.5-9c-2.2-1.3-4.6-2.2-7-3.1
	c-2.6-1-5.4-1.8-8-2.7c-4.7-1.7-8.5-4.5-10-9.5c-2.2-7.5,1.4-14.6,9.1-17.8c4.4-1.8,9.1-2.4,13.8-1.9C91.3,50.3,94.3,50.9,97.5,51.4
	"/>
<path class="st1" d="M56.7,109.8v9.2H36.1V36.6h20.6v9.2c-0.4,0-0.8,0.1-1.2,0.1c-2.9,0-5.8,0.1-8.7,0c-1.1,0-1.5,0.3-1.5,1.4
	c0,12.9,0,25.7,0,38.6c0,7.6,0,15.1,0,22.7c0,1.1,0.2,1.4,1.4,1.4c2.9-0.1,5.8,0,8.7,0H56.7z"/>
<path class="st0" d="M142.4,34.4c-0.8,2.6-1.6,5.1-2.4,7.5c-2.3-0.4-4.6-1-6.8-1.2c-1.7-0.2-3.5-0.1-5.2,0.1c-1.8,0.2-3,1.4-3.3,3.2
	c-0.4,2.5-0.5,5-0.7,7.6h13.5v9.5H124v43.1h-9.5v-43H108v-9.5h6.5c0.1-1,0.1-1.9,0.2-2.8c0.3-2.5,0.5-5.1,1.1-7.6
	c1.1-4.5,4.1-7.3,8.6-8.3C130.5,31.7,136.4,32.7,142.4,34.4"/>
<path class="st1" d="M294.3,119.1h-20.5v-9.2h2.3c2.6,0,5.2,0,7.8,0c1,0,1.3-0.3,1.3-1.3c0-13.8,0-27.7,0-41.5c0-6.6,0-13.2,0-19.8
	c0-1.2-0.4-1.5-1.5-1.4c-3.2,0.1-6.5,0-9.9,0v-9.2h20.5V119.1z"/>
<path class="st0" d="M269.7,53.5c-1.2,2.9-2.4,5.7-3.6,8.7c-1.1-0.4-2.1-0.8-3.1-1.2c-6.6-2.6-12.1-0.9-16.7,4.3
	c-1.3,1.5-2.4,3.1-3.5,4.7c-0.3,0.4-0.4,1.1-0.4,1.6c0,10.4,0,20.9,0,31.3v1.4h-9.1V51.8h9v8c0.7-0.9,1.2-1.6,1.7-2.2
	c4.6-6,10.7-8.1,18-6.7C264.7,51.4,267.3,52.2,269.7,53.5"/>
<polygon class="st0" points="221.5,104.3 212.5,104.3 212.5,61.3 197.4,61.3 197.4,51.8 221.5,51.8 "/>
<rect x="147.1" y="73.5" class="st1" width="40.8" height="9.2"/>
<rect x="147.1" y="51.9" class="st1" width="40.8" height="9.1"/>
<rect x="147" y="95.2" class="st1" width="40.8" height="9.1"/>
<path class="st0" d="M217.2,32.4c3.3,0,5.9,2.7,5.9,6c0,3.4-2.6,6.1-6,6.1c-3.2,0-5.8-2.8-5.8-6.1C211.3,35.1,213.9,32.4,217.2,32.4
	"/>
</svg>
