<?xml version="1.0" standalone="no"?><!DOCTYPE svg PUBLIC "-//W3C//DTD SVG 1.1//EN" "http://www.w3.org/Graphics/SVG/1.1/DTD/svg11.dtd"><svg class="icon" height="512" viewBox="0 0 1024 1024" version="1.1" xmlns="http://www.w3.org/2000/svg"><path d="M764.8 276.8c0-16-12.8-28.8-28.8-28.8H448c-16 0-28.8 12.8-28.8 28.8s12.8 28.8 28.8 28.8h288c16 0 28.8-12.8 28.8-28.8zM368 291.2c0 8-6.4 16-16 16h-83.2c-8 0-16-6.4-16-16v-75.2c0-8 6.4-16 16-16H352c8 0 16 6.4 16 16v75.2zM764.8 441.6c0-16-12.8-28.8-28.8-28.8H448c-16 0-28.8 12.8-28.8 28.8s12.8 28.8 28.8 28.8h288c16-1.6 28.8-14.4 28.8-28.8zM368 454.4c0 8-6.4 16-16 16h-83.2c-8 0-16-6.4-16-16v-75.2c0-8 6.4-16 16-16H352c8 0 16 6.4 16 16v75.2zM764.8 588.8c0-16-12.8-28.8-28.8-28.8H448c-16 0-28.8 12.8-28.8 28.8s12.8 28.8 28.8 28.8h288c16 0 28.8-12.8 28.8-28.8zM368 601.6c0 8-6.4 16-16 16h-83.2c-8 0-16-6.4-16-16v-75.2c0-8 6.4-16 16-16H352c8 0 16 6.4 16 16v75.2zM937.6 75.2h-150.4c-16 0-30.4 12.8-30.4 27.2s12.8 27.2 30.4 27.2h121.6v568h-800V129.6h716.8c14.4 0 27.2-12.8 27.2-27.2s-12.8-27.2-27.2-27.2H81.6c-16 0-27.2 12.8-27.2 27.2v624c0 16 12.8 27.2 27.2 27.2h377.6l1.6 152H184c-14.4 0-27.2 12.8-27.2 27.2 0 14.4 12.8 27.2 27.2 27.2h633.6c14.4 0 27.2-12.8 27.2-27.2 0-14.4-12.8-27.2-27.2-27.2H558.4l-1.6-150.4h380.8c16 0 27.2-12.8 27.2-27.2v-624c0-17.6-12.8-28.8-27.2-28.8z" /></svg>