<svg id="Loupe.svg" xmlns="http://www.w3.org/2000/svg" width="48.656" height="47.031" viewBox="0 0 48.656 47.031">
  <defs>
    <style>
      .cls-1, .cls-2 {
        fill: #fff;
        fill-rule: evenodd;
      }

      .cls-2 {
        opacity: 0.4;
      }
    </style>
  </defs>
  <path id="Shape_32_copy_copie" data-name="Shape 32 copy copie" class="cls-1" d="M900.55,143.3c1.437,1.526,1.994,4,.8,5.457a4.155,4.155,0,0,1-5.958.039h0l-9.243-8.706c-2.148,2.5-8.42,4.423-12.236,4.423A20.758,20.758,0,1,1,894.5,123.757c0,3.848-1.588,9-3.253,11.2l9.306,8.346h0Zm-26.635-36.381a16.837,16.837,0,1,0,16.7,16.837A16.767,16.767,0,0,0,873.915,106.921Z" transform="translate(-853.344 -103)"/>
  <path id="Ellipse_26_copy_8" data-name="Ellipse 26 copy 8" class="cls-2" d="M874,139c-6.626,0-11-5-11-5s0.359-2.147,4-3a7.286,7.286,0,0,0,4-2.459l0.18-1.649a5.378,5.378,0,0,1-1.548-3.348c-0.59.173-.785-0.7-0.82-1.263-0.031-.539-0.341-2.224.379-2.072a8.284,8.284,0,0,1-.2-1.883,5.056,5.056,0,0,1,4.721-4.32,4.632,4.632,0,0,1,4.7,4.318,8.446,8.446,0,0,1-.21,1.882c0.72-.15.407,1.533,0.372,2.072-0.032.559-.231,1.433-0.819,1.26a5.353,5.353,0,0,1-1.549,3.342l0.178,1.478A13.541,13.541,0,0,0,881,131c3.6,1.1,4,3,4,3C884.78,134.308,879.8,139,874,139Z" transform="translate(-853.344 -103)"/>
</svg>
