<?xml version="1.0" encoding="iso-8859-1"?>
<!-- Generator: Adobe Illustrator 16.0.0, SVG Export Plug-In . SVG Version: 6.00 Build 0)  -->
<!DOCTYPE svg PUBLIC "-//W3C//DTD SVG 1.1//EN" "http://www.w3.org/Graphics/SVG/1.1/DTD/svg11.dtd">
<svg version="1.1" id="Capa_1" xmlns="http://www.w3.org/2000/svg" xmlns:xlink="http://www.w3.org/1999/xlink" x="0px" y="0px"
	 width="374.003px" height="374.003px" viewBox="0 0 374.003 374.003" style="enable-background:new 0 0 374.003 374.003;"
	 xml:space="preserve">
<g>
	<g>
		<g>
			<path d="M170.944,165.64H60c-4.454,0-8.372,2.945-9.607,7.225l-21.289,73.714l149.265,16.332l11.713-56.059
				C182.792,193.835,176.085,179.899,170.944,165.64z"/>
			<path d="M310.354,277.353l44.828,4.904l-13.385-46.347c-1.798,2.646-3.587,5.224-5.349,7.702
				C327.392,256.364,318.342,267.81,310.354,277.353z"/>
			<path d="M213.143,243.164l-4.812,23.026l24.23,2.649c-6.084-7.563-12.56-16.013-19.047-25.146
				C213.393,243.519,213.267,243.339,213.143,243.164z"/>
			<path d="M0.393,345.998c-0.872,3.021-0.274,6.271,1.615,8.785c1.889,2.513,4.849,3.99,7.992,3.99h148.34l13.864-66.355
				L20.655,275.835L0.393,345.998z"/>
			<path d="M364.182,313.421l-162.015-17.729l-13.181,63.079h174.997c0.007,0,0.014,0,0.02,0c5.523,0,10-4.479,10-10
				c0-1.197-0.21-2.346-0.595-3.406L364.182,313.421z"/>
			<path d="M270.826,290.064c1.064,1.139,2.562,1.785,4.126,1.785c1.565,0,3.058-0.646,4.133-1.785
				c9.111-9.693,27.104-29.752,45.135-55.137c22.714-31.978,49.783-78.865,49.783-120.65c0-54.617-44.433-99.047-99.051-99.047
				c-54.612,0-99.046,44.43-99.046,99.047c0,41.814,27.104,88.732,49.841,120.732C243.773,260.392,261.724,280.392,270.826,290.064z
				 M274.952,52.499c33.35,0,60.479,27.137,60.479,60.486c0,33.336-27.13,60.486-60.479,60.486
				c-33.344,0-60.477-27.15-60.477-60.486C214.477,79.636,241.607,52.499,274.952,52.499z"/>
		</g>
	</g>
</g>
</svg>
