<svg xmlns="http://www.w3.org/2000/svg" width="170" height="156" viewBox="0 0 170 156">
  <defs>
    <style>
      .cls-1 {
        fill: #0168ab;
        fill-rule: evenodd;
      }
    </style>
  </defs>
  <path id="Base.svg" class="cls-1" d="M1117,549h-85s2.77-17.471,30.91-24.091a56.278,56.278,0,0,0,30.91-19.089l1.39-12.794s-9.69-8.152-11.96-25.987c-4.56,1.345-6.06-5.464-6.33-9.8-0.24-4.185-2.64-17.264,2.92-16.084-1.13-8.732-1.95-10.445-1.55-14.617,1.39-14.645,15.21-32.409,36.48-33.527,25.03,1.116,34.94,18.872,36.33,33.515,0.41,4.174-.48,5.892-1.62,14.609,5.56-1.165,3.14,11.892,2.87,16.079-0.24,4.336-1.78,11.121-6.33,9.778-2.27,17.834-11.97,25.942-11.97,25.942l1.38,11.465s15.49,14.312,35.66,20.509C1198.91,533.468,1202,549,1202,549h-85Z" transform="translate(-1032 -393)"/>
</svg>
